<?xml version="1.0"?>
<svg xmlns="http://www.w3.org/2000/svg" viewBox="0 0 26 26" enable-background="new 0 0 26 26">
    <path fill="red" style="text-indent:0;text-align:start;line-height:normal;text-transform:none;block-progression:tb;-inkscape-font-specification:Bitstream Vera Sans" d="M 13 1 C 6.3844277 1 1 6.3844277 1 13 C 1 19.615572 6.3844277 25 13 25 C 19.615572 25 25 19.615572 25 13 C 25 6.3844277 19.615572 1 13 1 z M 13 3 C 18.534692 3 23 7.4653079 23 13 C 23 15.405754 22.158429 17.620976 20.75 19.34375 L 6.65625 5.25 C 8.379024 3.841571 10.594246 3 13 3 z M 5.25 6.65625 L 19.34375 20.75 C 17.620976 22.158429 15.405754 23 13 23 C 7.4653079 23 3 18.534692 3 13 C 3 10.594246 3.841571 8.379024 5.25 6.65625 z" overflow="visible" enable-background="accumulate" font-family="Bitstream Vera Sans"/>
</svg>
